<svg width="207" height="38" viewBox="0 0 207 38" fill="none" xmlns="http://www.w3.org/2000/svg">
<path d="M192.252 22.3077V22.1538C192.177 22.2308 192.252 22.3077 192.252 22.3077Z" fill="#FF0043"/>
<path d="M186.369 18H186.216C186.249 18 186.267 18 186.284 18.0058C186.306 18.0138 186.325 18.0326 186.369 18.0769V18Z" fill="#FF0043"/>
<path fill-rule="evenodd" clip-rule="evenodd" d="M201.804 13.2308C203.027 11.3846 203.103 9.3846 202.263 7.23076C202.645 6.84614 203.18 6.6923 203.714 6.6923C204.097 6.76922 204.555 6.92306 204.937 7.07691C205.243 7.23076 205.548 7.15383 205.701 6.84614C205.854 6.53845 205.778 6.23076 205.472 6.07691C205.396 6.03845 205.338 6.01922 205.281 5.99999C205.224 5.98076 205.166 5.96153 205.09 5.92306C203.944 5.46153 202.798 5.3846 201.651 6.15383C200.811 4.99999 199.665 4.30768 198.366 3.84614C198.595 2.3846 198.06 0.999987 197.067 0.153833C196.761 -0.153859 196.455 -0.153859 196.226 0.0769099C195.93 0.300108 196.064 0.523307 196.28 0.885702L196.303 0.923064C196.685 1.3846 196.99 1.84614 197.219 2.3846C197.372 2.69226 197.372 3.15374 197.372 3.53833C196.226 3.46141 195.233 3.61537 194.239 4.07691C193.246 4.46153 192.482 5.15383 191.871 5.92306C191.66 5.83473 191.453 5.74639 191.249 5.65899C190.564 5.36583 189.903 5.08316 189.196 4.84614C184.764 3.3846 180.485 3.61537 176.359 5.99999C173.073 7.92307 170.781 10.8461 169.023 14.3077C169.555 14.8042 170.105 15.3196 170.655 15.8352L170.66 15.8407L170.664 15.844C171.219 16.364 171.774 16.8839 172.309 17.3846C172.263 17.6185 172.209 17.8596 172.155 18.1034C172.031 18.6613 171.904 19.234 171.851 19.7692C171.812 20.1923 171.774 20.5961 171.736 21C171.698 21.4038 171.66 21.8077 171.621 22.2308C171.927 22.4231 172.214 22.6154 172.5 22.8077C172.787 23 173.073 23.1923 173.379 23.3846V23.4615C173.455 23.6154 173.455 23.6923 173.455 23.7692C174.372 29 177.2 33 181.861 35.5385C184.764 37.1538 187.897 37.6923 191.183 37.3077C191.508 37.3077 191.911 37.2689 192.145 37.2464C192.24 37.2372 192.307 37.2308 192.329 37.2308C192.711 37.4615 193.246 37.7692 193.552 37.9231C194.147 37.6058 194.758 37.2725 195.385 36.9304L195.387 36.9293L195.39 36.928C196.13 36.5242 196.893 36.1083 197.678 35.6923C198.748 36.3077 199.97 37 201.193 37.6923C203.18 35.7692 205.09 33.0769 206.083 30.3077C207.841 25.2308 207.077 20.4615 204.097 16.0769C203.699 15.4991 203.251 14.9727 202.796 14.4383C202.463 14.0478 202.127 13.653 201.804 13.2308ZM200.123 6.61537C200.352 6.84614 200.582 7.23076 200.734 7.53845C201.04 8.23076 201.193 8.92307 201.269 9.6923C201.269 10.0769 201.269 10.5384 201.116 10.9231C201.087 10.9523 201.014 11.115 200.93 11.3012C200.794 11.6047 200.629 11.9707 200.582 11.9231C200.238 11.7308 199.913 11.5192 199.588 11.3077C199.263 11.0961 198.939 10.8846 198.595 10.6923C198.06 10.3846 197.449 10.0769 196.914 9.84614C196.876 9.80768 196.837 9.78845 196.799 9.76922C196.761 9.74999 196.723 9.73076 196.685 9.6923C196.325 9.27885 195.931 8.90012 195.549 8.53279C195.363 8.35337 195.179 8.17668 195.003 7.99999C194.774 7.76922 194.545 7.53845 194.316 7.3846C194.239 7.3846 193.475 6.92306 193.475 6.92306C193.601 6.79603 193.704 6.669 193.797 6.5548C193.873 6.46154 193.941 6.37684 194.01 6.30768C195.003 5.3846 196.455 4.99999 197.831 5.30768C198.671 5.46153 199.512 5.92306 200.123 6.61537ZM203.867 30.8461C203.562 31.4615 203.18 32.0769 202.798 32.6154C202.712 32.7299 202.595 32.9084 202.47 33.0993L202.469 33.1004L202.469 33.1014C202.258 33.4226 202.024 33.7786 201.881 33.9231C201.804 34.0769 200.964 35.3846 200.811 35.3077C200.616 35.2005 200.425 35.0975 200.238 34.9967C199.62 34.6634 199.046 34.3543 198.518 34C196.379 32.6923 194.698 31 193.475 28.7692C191.871 25.6154 191.259 22.4615 192.329 19C192.711 17.7692 195.691 13.2308 196.837 12.3846C197.372 12.6154 197.984 12.9231 198.518 13.2308C200.276 14.3846 201.804 15.7692 202.95 17.5385C205.166 21.0769 205.93 24.8461 204.631 28.8461C204.402 29.5385 204.173 30.2308 203.867 30.8461ZM194.201 10.3077C194.258 10.3846 194.316 10.4615 194.392 10.5384C194.439 10.5858 194.225 10.9252 194.054 11.1968C193.947 11.366 193.857 11.5089 193.857 11.5384C193.664 11.8795 193.439 12.1897 193.223 12.4886C193.098 12.6616 192.976 12.8308 192.864 13C191.718 14.6923 190.495 16.3846 188.814 17.4615C188.126 17.9231 187.439 18.2308 186.675 18.5385C184.535 19.3077 182.319 19.3846 180.103 19.0769C176.741 18.5385 173.99 16.7692 171.545 14.3846L171.239 14.0769C172.08 12.5384 173.073 11.1538 174.219 9.92306C176.13 7.92306 178.346 6.53845 181.02 5.99999C183.847 5.3846 186.598 5.69229 189.273 6.84614C191.03 7.61537 192.635 8.6923 194.01 10.0769C194.087 10.1538 194.144 10.2308 194.201 10.3077ZM190.113 35.2308C183.542 36.2308 176.97 31.4615 175.824 24.7692C179.186 26.3077 184.611 24.6923 188.508 21.6154C186.751 25.9231 187.133 32.5384 190.113 35.2308Z" fill="#FF0043"/>
<path d="M0 17.7692H2.67442V32.6923H10.6213V35.0769H0V17.7692Z" fill="#FF0043"/>
<path fill-rule="evenodd" clip-rule="evenodd" d="M19.5614 17.7692H19.2557L11.9966 35.0769H14.5182L15.5115 32.6923H23.3056L24.2989 35.0769H27.0497L19.5614 17.7692ZM20.2491 25.0769L22.3886 30.3846H16.4285L18.568 25.0769C18.6062 24.9231 18.6635 24.7885 18.7208 24.6538C18.7781 24.5192 18.8355 24.3846 18.8737 24.2308C18.9904 23.9957 19.0626 23.7607 19.1242 23.5599C19.1432 23.4979 19.1613 23.4391 19.1793 23.3846L19.4085 22.4615C19.5614 22.7692 19.6378 23.0769 19.7142 23.3846C19.7524 23.5385 19.7906 23.6731 19.8288 23.8077C19.867 23.9423 19.9052 24.0769 19.9434 24.2308C20.0198 24.5385 20.0963 24.8461 20.2491 25.0769Z" fill="#FF0043"/>
<path d="M45.3887 17.7692H56.3156V20.1538H48.0631V26.8461H55.3986V29.1538H48.0631V32.6923H56.6976V35.0769H45.3887V17.7692Z" fill="#FF0043"/>
<path d="M62.276 17.7692H59.6016V35.0769H70.2228V32.6923H62.276V17.7692Z" fill="#FF0043"/>
<path fill-rule="evenodd" clip-rule="evenodd" d="M81.6841 17.6923C82.4482 17.6923 83.2124 17.7692 83.9765 17.9231C84.7406 18.0769 85.4283 18.3077 86.0396 18.6154C86.6509 18.9231 87.1094 19.4615 87.4914 20C87.8735 20.6154 88.0263 21.3846 88.0263 22.3077C88.0263 23.0769 87.8735 23.7692 87.4914 24.3846C87.1094 25 86.6509 25.4615 85.9632 25.8461C87.3386 26.3077 88.2555 27.3077 88.5612 28.7692C88.6376 28.9231 88.6376 29.0769 88.6376 29.2308V30.5384C88.6376 30.6076 88.6222 30.6768 88.6052 30.7529C88.5844 30.8461 88.5612 30.9499 88.5612 31.0769C88.4084 31.7692 88.1027 32.3846 87.7207 32.9231C87.3386 33.4615 86.8037 33.8461 86.1924 34.1538C85.5811 34.4615 84.9698 34.6923 84.2821 34.8461C83.5944 35 82.9067 35.0769 82.219 35.0769H73.126V17.6923H81.6841ZM81.6077 24.5384L82.2954 24.3077C82.5246 24.2308 82.6775 24 82.7539 23.8461C82.9067 23.6154 82.9067 23.3846 82.9067 23.0769C82.9067 22.5384 82.7539 22.2308 82.4482 22C82.1426 21.7692 81.7605 21.6154 81.3021 21.6154H78.5512V24.6154H80.8436C81.0728 24.6154 81.3021 24.6154 81.6077 24.5384ZM81.8369 31C82.0662 31 82.2954 30.9231 82.5247 30.8461C82.7539 30.7692 82.9067 30.6154 83.0595 30.4615C83.2124 30.3077 83.2888 30.0769 83.3652 29.7692V29C83.2888 28.6923 83.2124 28.4615 82.9831 28.3077C82.8303 28.1538 82.6011 28 82.3718 28C82.1426 27.9231 81.9134 27.8461 81.6841 27.8461H78.4748V31H81.8369Z" fill="#FF0043"/>
<path d="M97.7309 30.4615C97.3488 30 97.1196 29.3077 97.1196 28.3846H97.2724V17.6923H91.6943V28.8461C91.6943 30.0769 91.9236 31.0769 92.382 31.9231C92.8405 32.7692 93.4518 33.4615 94.2159 34C94.98 34.5384 95.8206 34.9231 96.8139 35.1538C97.7309 35.3846 98.8006 35.5384 99.8704 35.5384C100.94 35.5384 102.01 35.3846 103.003 35.1538C103.997 34.9231 104.837 34.5384 105.601 34C106.365 33.4615 106.977 32.7692 107.435 31.9231C107.894 31.0769 108.123 30.0769 108.123 28.8461V17.6923H102.545V28.8461C102.545 28.9732 102.522 29.0769 102.501 29.1702C102.484 29.2463 102.468 29.3155 102.468 29.3846C102.468 29.7692 102.316 30 102.163 30.2308C101.934 30.4615 101.704 30.6154 101.475 30.7692C101.246 30.9231 100.94 31 100.635 31.0769C100.329 31.1538 100.023 31.1538 99.794 31.1538C98.8007 31.1538 98.1129 30.9231 97.7309 30.4615Z" fill="#FF0043"/>
<path fill-rule="evenodd" clip-rule="evenodd" d="M119.508 17.6923C119.738 17.6923 119.967 17.7115 120.196 17.7308C120.425 17.75 120.655 17.7692 120.884 17.7692C122.106 17.8461 123.1 18.1538 123.94 18.6154C124.781 19.0769 125.468 19.7692 126.08 20.5384C126.615 21.3077 127.073 22.2308 127.302 23.2308C127.532 24.2308 127.684 25.3077 127.684 26.3846C127.684 27.6154 127.532 28.6923 127.226 29.7692C126.92 30.8461 126.385 31.6923 125.774 32.4615C125.163 33.2308 124.322 33.8461 123.329 34.3077C122.336 34.7692 121.266 35 119.967 35.0769C119.738 35.0769 119.489 35.0961 119.241 35.1154C118.993 35.1346 118.744 35.1538 118.515 35.1538H111.409V17.6923H119.508ZM120.655 30.3077C121.037 30.0769 121.342 29.6923 121.571 29.3077C121.801 28.9231 121.954 28.4615 122.03 27.9231L122.056 27.744C122.123 27.2798 122.183 26.8624 122.183 26.3846C122.183 25.9231 122.183 25.5384 122.106 25C122.03 24.5384 121.877 24.0769 121.724 23.6923C121.571 23.3077 121.266 22.9231 120.96 22.6154C120.655 22.3077 120.196 22.1538 119.738 22.0769C119.279 22 118.821 22 118.439 22H117.14V30.6154H119.279C119.738 30.6923 120.272 30.5384 120.655 30.3077Z" fill="#FF0043"/>
<path fill-rule="evenodd" clip-rule="evenodd" d="M138.611 17.6923H130.512V35.1538H137.618C137.847 35.1538 138.096 35.1346 138.344 35.1154C138.592 35.0961 138.841 35.0769 139.07 35.0769C140.369 35 141.439 34.7692 142.432 34.3077C143.425 33.8461 144.266 33.2308 144.877 32.4615C145.488 31.6923 146.023 30.8461 146.329 29.7692C146.635 28.6923 146.787 27.6154 146.787 26.3846C146.787 25.3077 146.635 24.2308 146.405 23.2308C146.176 22.2308 145.718 21.3077 145.183 20.5384C144.572 19.7692 143.884 19.0769 143.043 18.6154C142.203 18.1538 141.209 17.8461 139.987 17.7692C139.758 17.7692 139.528 17.75 139.299 17.7308C139.07 17.7115 138.841 17.6923 138.611 17.6923ZM140.675 29.3077C140.445 29.6923 140.14 30.0769 139.758 30.3077C139.376 30.5384 138.841 30.6923 138.382 30.6154H136.243V22H137.542C137.924 22 138.382 22 138.841 22.0769C139.299 22.1538 139.758 22.3077 140.063 22.6154C140.369 22.9231 140.675 23.3077 140.827 23.6923C140.98 24.0769 141.133 24.5384 141.209 25C141.286 25.5383 141.286 25.9229 141.286 26.3843C141.286 26.8622 141.226 27.2797 141.159 27.7439L141.133 27.9231C141.057 28.4615 140.904 28.9231 140.675 29.3077Z" fill="#FF0043"/>
<path d="M147.781 17.6923H153.894L156.874 23.6154L159.854 17.6923H165.89L159.701 28.6154V35.0769H154.123V28.6154L147.781 17.6923Z" fill="#FF0043"/>
<path fill-rule="evenodd" clip-rule="evenodd" d="M36.5252 17.7692H29.1133V35.0769H36.4488C38.7412 35.0769 40.3458 34.4615 41.4156 33.0769C42.1033 32.2308 42.4854 31.2308 42.4854 30.0769C42.4854 28.6923 42.1033 27.6923 41.3392 26.9231C40.8807 26.4615 40.2694 26.0769 39.3525 25.7692C39.9638 25.4615 40.4222 25.1538 40.7279 24.7692C41.3392 24.0769 41.6448 23.1538 41.6448 22.0769C41.6448 21.1538 41.4156 20.3077 40.8807 19.6154C39.9638 18.3846 38.5884 17.7692 36.5252 17.7692ZM37.9771 24.6923C37.4422 24.9231 36.6781 25.0769 35.6847 25.0769V25.1538H31.4056V19.7692H35.6083C36.6017 19.7692 37.3658 19.8461 37.9007 20.0769C38.8176 20.4615 39.2761 21.2308 39.2761 22.3846C39.2761 23.4615 38.8176 24.2308 37.9771 24.6923ZM39.5053 31.8461C38.894 32.6923 37.9007 33.0769 36.4488 33.0769H31.4056V27H36.0668C37.0601 27 37.8242 27.1538 38.4355 27.3846C39.5817 27.8461 40.1166 28.6923 40.1166 29.9231C40.1166 30.6923 39.8874 31.3077 39.5053 31.8461Z" fill="#FF0043"/>
</svg>

