<?xml version="1.0" encoding="UTF-8"?>
<svg xmlns="http://www.w3.org/2000/svg" xmlns:xlink="http://www.w3.org/1999/xlink" width="163pt" height="30pt" viewBox="0 0 163 30" version="1.1">
<g id="surface1">
<path style=" stroke:none;fill-rule:nonzero;fill:rgb(100%,0%,26.27451%);fill-opacity:1;" d="M 151.386719 17.613281 L 151.386719 17.488281 C 151.328125 17.550781 151.386719 17.613281 151.386719 17.613281 Z M 151.386719 17.613281 "/>
<path style=" stroke:none;fill-rule:nonzero;fill:rgb(100%,0%,26.27451%);fill-opacity:1;" d="M 146.753906 14.210938 L 146.632812 14.210938 C 146.660156 14.210938 146.675781 14.210938 146.6875 14.214844 C 146.703125 14.222656 146.71875 14.234375 146.753906 14.269531 Z M 146.753906 14.210938 "/>
<path style=" stroke:none;fill-rule:evenodd;fill:rgb(100%,0%,26.27451%);fill-opacity:1;" d="M 158.910156 10.445312 C 159.871094 8.988281 159.929688 7.410156 159.269531 5.707031 C 159.570312 5.40625 159.992188 5.285156 160.414062 5.285156 C 160.714844 5.34375 161.074219 5.464844 161.375 5.585938 C 161.617188 5.707031 161.855469 5.648438 161.976562 5.40625 C 162.097656 5.160156 162.039062 4.917969 161.796875 4.796875 C 161.738281 4.765625 161.691406 4.753906 161.644531 4.738281 C 161.601562 4.722656 161.554688 4.707031 161.496094 4.675781 C 160.59375 4.3125 159.691406 4.25 158.789062 4.859375 C 158.125 3.949219 157.222656 3.402344 156.203125 3.035156 C 156.382812 1.882812 155.960938 0.789062 155.179688 0.121094 C 154.9375 -0.121094 154.695312 -0.121094 154.515625 0.0625 C 154.28125 0.238281 154.386719 0.414062 154.558594 0.699219 L 154.578125 0.730469 C 154.878906 1.09375 155.117188 1.457031 155.296875 1.882812 C 155.417969 2.125 155.417969 2.488281 155.417969 2.792969 C 154.515625 2.734375 153.734375 2.855469 152.953125 3.21875 C 152.167969 3.523438 151.566406 4.070312 151.085938 4.675781 C 150.921875 4.605469 150.757812 4.535156 150.597656 4.46875 C 150.058594 4.234375 149.539062 4.011719 148.980469 3.824219 C 145.492188 2.671875 142.121094 2.855469 138.871094 4.738281 C 136.285156 6.253906 134.480469 8.5625 133.09375 11.296875 C 133.515625 11.6875 133.949219 12.09375 134.378906 12.5 L 134.386719 12.507812 C 134.824219 12.917969 135.261719 13.328125 135.683594 13.726562 C 135.648438 13.910156 135.605469 14.101562 135.5625 14.292969 C 135.464844 14.734375 135.363281 15.183594 135.324219 15.605469 C 135.292969 15.941406 135.261719 16.261719 135.230469 16.578125 C 135.203125 16.898438 135.171875 17.214844 135.140625 17.550781 C 135.382812 17.703125 135.609375 17.855469 135.832031 18.007812 C 136.058594 18.15625 136.285156 18.308594 136.527344 18.460938 L 136.527344 18.523438 C 136.585938 18.644531 136.585938 18.703125 136.585938 18.765625 C 137.308594 22.894531 139.535156 26.050781 143.203125 28.058594 C 145.492188 29.332031 147.957031 29.757812 150.546875 29.453125 C 150.800781 29.453125 151.117188 29.421875 151.300781 29.40625 C 151.378906 29.398438 151.429688 29.394531 151.449219 29.394531 C 151.75 29.574219 152.167969 29.816406 152.410156 29.9375 C 152.878906 29.6875 153.359375 29.425781 153.855469 29.15625 L 153.859375 29.152344 C 154.441406 28.835938 155.042969 28.507812 155.660156 28.179688 C 156.503906 28.664062 157.464844 29.210938 158.425781 29.757812 C 159.992188 28.238281 161.496094 26.113281 162.277344 23.925781 C 163.664062 19.917969 163.0625 16.152344 160.714844 12.691406 C 160.402344 12.234375 160.046875 11.820312 159.691406 11.398438 C 159.425781 11.089844 159.164062 10.777344 158.910156 10.445312 Z M 157.585938 5.222656 C 157.765625 5.40625 157.945312 5.707031 158.066406 5.953125 C 158.308594 6.496094 158.425781 7.042969 158.488281 7.652344 C 158.488281 7.957031 158.488281 8.320312 158.367188 8.625 C 158.34375 8.648438 158.285156 8.773438 158.21875 8.921875 C 158.113281 9.160156 157.984375 9.449219 157.945312 9.414062 C 157.675781 9.261719 157.417969 9.09375 157.164062 8.925781 C 156.90625 8.761719 156.652344 8.59375 156.382812 8.441406 C 155.960938 8.199219 155.480469 7.957031 155.058594 7.773438 C 155.027344 7.742188 154.996094 7.726562 154.96875 7.710938 C 154.9375 7.699219 154.90625 7.683594 154.878906 7.652344 C 154.59375 7.324219 154.285156 7.027344 153.984375 6.738281 C 153.835938 6.59375 153.691406 6.457031 153.554688 6.316406 C 153.371094 6.132812 153.191406 5.953125 153.011719 5.828125 C 152.953125 5.828125 152.351562 5.464844 152.351562 5.464844 C 152.449219 5.367188 152.53125 5.265625 152.601562 5.175781 C 152.664062 5.101562 152.71875 5.035156 152.769531 4.980469 C 153.554688 4.25 154.695312 3.949219 155.78125 4.191406 C 156.441406 4.3125 157.105469 4.675781 157.585938 5.222656 Z M 160.53125 24.351562 C 160.292969 24.839844 159.992188 25.324219 159.691406 25.75 C 159.625 25.839844 159.53125 25.980469 159.433594 26.132812 C 159.265625 26.386719 159.082031 26.667969 158.96875 26.78125 C 158.910156 26.902344 158.246094 27.933594 158.125 27.875 C 157.972656 27.789062 157.824219 27.707031 157.675781 27.628906 C 157.1875 27.367188 156.738281 27.121094 156.320312 26.84375 C 154.636719 25.808594 153.3125 24.472656 152.351562 22.710938 C 151.085938 20.222656 150.605469 17.734375 151.449219 15 C 151.75 14.027344 154.09375 10.445312 154.996094 9.777344 C 155.417969 9.960938 155.902344 10.203125 156.320312 10.445312 C 157.707031 11.355469 158.910156 12.449219 159.8125 13.847656 C 161.554688 16.640625 162.15625 19.617188 161.132812 22.773438 C 160.953125 23.320312 160.773438 23.867188 160.53125 24.351562 Z M 152.921875 8.136719 C 152.964844 8.199219 153.011719 8.257812 153.070312 8.320312 C 153.109375 8.355469 152.941406 8.625 152.804688 8.839844 C 152.722656 8.972656 152.652344 9.085938 152.652344 9.109375 C 152.5 9.378906 152.320312 9.625 152.152344 9.859375 C 152.054688 9.996094 151.957031 10.128906 151.867188 10.261719 C 150.964844 11.597656 150.003906 12.933594 148.679688 13.785156 C 148.136719 14.148438 147.597656 14.394531 146.996094 14.636719 C 145.308594 15.242188 143.566406 15.304688 141.820312 15.0625 C 139.171875 14.636719 137.007812 13.238281 135.082031 11.355469 L 134.839844 11.113281 C 135.503906 9.898438 136.285156 8.804688 137.1875 7.835938 C 138.691406 6.253906 140.4375 5.160156 142.542969 4.738281 C 144.769531 4.25 146.933594 4.492188 149.042969 5.40625 C 150.425781 6.011719 151.6875 6.863281 152.769531 7.957031 C 152.832031 8.015625 152.875 8.078125 152.921875 8.136719 Z M 149.703125 27.8125 C 144.527344 28.601562 139.351562 24.839844 138.449219 19.554688 C 141.097656 20.769531 145.371094 19.492188 148.4375 17.066406 C 147.054688 20.464844 147.355469 25.6875 149.703125 27.8125 Z M 149.703125 27.8125 "/>
<path style=" stroke:none;fill-rule:nonzero;fill:rgb(100%,0%,26.27451%);fill-opacity:1;" d="M 0 14.027344 L 2.105469 14.027344 L 2.105469 25.808594 L 8.363281 25.808594 L 8.363281 27.691406 L 0 27.691406 Z M 0 14.027344 "/>
<path style=" stroke:none;fill-rule:evenodd;fill:rgb(100%,0%,26.27451%);fill-opacity:1;" d="M 15.402344 14.027344 L 15.164062 14.027344 L 9.445312 27.691406 L 11.433594 27.691406 L 12.214844 25.808594 L 18.351562 25.808594 L 19.132812 27.691406 L 21.300781 27.691406 Z M 15.945312 19.796875 L 17.628906 23.988281 L 12.9375 23.988281 L 14.621094 19.796875 C 14.652344 19.675781 14.695312 19.570312 14.742188 19.464844 C 14.785156 19.355469 14.832031 19.25 14.863281 19.128906 C 14.953125 18.945312 15.011719 18.757812 15.058594 18.601562 C 15.074219 18.550781 15.089844 18.503906 15.101562 18.460938 L 15.28125 17.734375 C 15.402344 17.976562 15.464844 18.21875 15.523438 18.460938 C 15.554688 18.582031 15.582031 18.6875 15.613281 18.796875 C 15.644531 18.902344 15.675781 19.007812 15.703125 19.128906 C 15.765625 19.371094 15.824219 19.617188 15.945312 19.796875 Z M 15.945312 19.796875 "/>
<path style=" stroke:none;fill-rule:nonzero;fill:rgb(100%,0%,26.27451%);fill-opacity:1;" d="M 35.742188 14.027344 L 44.34375 14.027344 L 44.34375 15.910156 L 37.847656 15.910156 L 37.847656 21.195312 L 43.625 21.195312 L 43.625 23.015625 L 37.847656 23.015625 L 37.847656 25.808594 L 44.644531 25.808594 L 44.644531 27.691406 L 35.742188 27.691406 Z M 35.742188 14.027344 "/>
<path style=" stroke:none;fill-rule:nonzero;fill:rgb(100%,0%,26.27451%);fill-opacity:1;" d="M 49.039062 14.027344 L 46.933594 14.027344 L 46.933594 27.691406 L 55.296875 27.691406 L 55.296875 25.808594 L 49.039062 25.808594 Z M 49.039062 14.027344 "/>
<path style=" stroke:none;fill-rule:evenodd;fill:rgb(100%,0%,26.27451%);fill-opacity:1;" d="M 64.320312 13.96875 C 64.921875 13.96875 65.523438 14.027344 66.125 14.148438 C 66.726562 14.269531 67.269531 14.453125 67.75 14.695312 C 68.230469 14.9375 68.59375 15.363281 68.894531 15.789062 C 69.195312 16.273438 69.316406 16.882812 69.316406 17.613281 C 69.316406 18.21875 69.195312 18.765625 68.894531 19.25 C 68.59375 19.738281 68.230469 20.101562 67.691406 20.40625 C 68.773438 20.769531 69.496094 21.558594 69.738281 22.710938 C 69.796875 22.835938 69.796875 22.957031 69.796875 23.078125 L 69.796875 24.109375 C 69.796875 24.164062 69.785156 24.21875 69.769531 24.277344 C 69.753906 24.351562 69.738281 24.433594 69.738281 24.535156 C 69.617188 25.082031 69.375 25.566406 69.074219 25.992188 C 68.773438 26.417969 68.351562 26.71875 67.871094 26.964844 C 67.390625 27.207031 66.910156 27.386719 66.367188 27.511719 C 65.824219 27.632812 65.285156 27.691406 64.742188 27.691406 L 57.582031 27.691406 L 57.582031 13.96875 Z M 64.261719 19.371094 L 64.800781 19.191406 C 64.984375 19.128906 65.105469 18.949219 65.164062 18.824219 C 65.285156 18.644531 65.285156 18.460938 65.285156 18.21875 C 65.285156 17.792969 65.164062 17.550781 64.921875 17.367188 C 64.683594 17.1875 64.382812 17.066406 64.019531 17.066406 L 61.855469 17.066406 L 61.855469 19.433594 L 63.660156 19.433594 C 63.839844 19.433594 64.019531 19.433594 64.261719 19.371094 Z M 64.441406 24.472656 C 64.621094 24.472656 64.800781 24.414062 64.984375 24.351562 C 65.164062 24.292969 65.285156 24.171875 65.40625 24.046875 C 65.523438 23.925781 65.585938 23.746094 65.644531 23.503906 L 65.644531 22.894531 C 65.585938 22.652344 65.523438 22.46875 65.34375 22.347656 C 65.222656 22.226562 65.042969 22.105469 64.863281 22.105469 C 64.683594 22.042969 64.5 21.984375 64.320312 21.984375 L 61.792969 21.984375 L 61.792969 24.472656 Z M 64.441406 24.472656 "/>
<path style=" stroke:none;fill-rule:nonzero;fill:rgb(100%,0%,26.27451%);fill-opacity:1;" d="M 76.957031 24.046875 C 76.65625 23.683594 76.476562 23.136719 76.476562 22.410156 L 76.597656 22.410156 L 76.597656 13.96875 L 72.203125 13.96875 L 72.203125 22.773438 C 72.203125 23.746094 72.382812 24.535156 72.746094 25.203125 C 73.105469 25.871094 73.585938 26.417969 74.1875 26.84375 C 74.789062 27.265625 75.453125 27.570312 76.234375 27.753906 C 76.957031 27.933594 77.800781 28.054688 78.640625 28.054688 C 79.484375 28.054688 80.328125 27.933594 81.109375 27.753906 C 81.890625 27.570312 82.554688 27.265625 83.15625 26.84375 C 83.757812 26.417969 84.238281 25.871094 84.597656 25.203125 C 84.960938 24.535156 85.140625 23.746094 85.140625 22.773438 L 85.140625 13.96875 L 80.746094 13.96875 L 80.746094 22.773438 C 80.746094 22.875 80.730469 22.957031 80.714844 23.027344 C 80.699219 23.089844 80.6875 23.144531 80.6875 23.199219 C 80.6875 23.503906 80.566406 23.683594 80.445312 23.867188 C 80.265625 24.046875 80.085938 24.171875 79.90625 24.292969 C 79.726562 24.414062 79.484375 24.472656 79.242188 24.535156 C 79.003906 24.59375 78.761719 24.59375 78.582031 24.59375 C 77.800781 24.59375 77.257812 24.414062 76.957031 24.046875 Z M 76.957031 24.046875 "/>
<path style=" stroke:none;fill-rule:evenodd;fill:rgb(100%,0%,26.27451%);fill-opacity:1;" d="M 94.105469 13.96875 C 94.285156 13.96875 94.464844 13.984375 94.648438 13.996094 C 94.828125 14.011719 95.007812 14.027344 95.1875 14.027344 C 96.152344 14.089844 96.933594 14.332031 97.59375 14.695312 C 98.257812 15.0625 98.796875 15.605469 99.28125 16.214844 C 99.703125 16.820312 100.0625 17.550781 100.242188 18.339844 C 100.421875 19.128906 100.542969 19.980469 100.542969 20.828125 C 100.542969 21.800781 100.421875 22.652344 100.183594 23.503906 C 99.941406 24.351562 99.519531 25.019531 99.039062 25.628906 C 98.558594 26.234375 97.894531 26.71875 97.113281 27.085938 C 96.332031 27.449219 95.488281 27.632812 94.464844 27.691406 C 94.285156 27.691406 94.089844 27.707031 93.894531 27.722656 C 93.699219 27.738281 93.503906 27.753906 93.324219 27.753906 L 87.726562 27.753906 L 87.726562 13.96875 Z M 95.007812 23.925781 C 95.308594 23.746094 95.550781 23.441406 95.730469 23.136719 C 95.910156 22.835938 96.03125 22.46875 96.089844 22.042969 L 96.113281 21.902344 C 96.164062 21.535156 96.210938 21.207031 96.210938 20.828125 C 96.210938 20.464844 96.210938 20.160156 96.152344 19.738281 C 96.089844 19.371094 95.972656 19.007812 95.851562 18.703125 C 95.730469 18.402344 95.488281 18.097656 95.25 17.855469 C 95.007812 17.613281 94.648438 17.488281 94.285156 17.429688 C 93.925781 17.367188 93.5625 17.367188 93.261719 17.367188 L 92.242188 17.367188 L 92.242188 24.171875 L 93.925781 24.171875 C 94.285156 24.230469 94.707031 24.109375 95.007812 23.925781 Z M 95.007812 23.925781 "/>
<path style=" stroke:none;fill-rule:evenodd;fill:rgb(100%,0%,26.27451%);fill-opacity:1;" d="M 109.148438 13.96875 L 102.769531 13.96875 L 102.769531 27.753906 L 108.367188 27.753906 C 108.546875 27.753906 108.742188 27.738281 108.9375 27.722656 C 109.132812 27.707031 109.328125 27.691406 109.507812 27.691406 C 110.53125 27.632812 111.375 27.449219 112.15625 27.085938 C 112.9375 26.71875 113.601562 26.234375 114.082031 25.628906 C 114.5625 25.019531 114.984375 24.351562 115.226562 23.503906 C 115.464844 22.652344 115.585938 21.800781 115.585938 20.828125 C 115.585938 19.980469 115.464844 19.128906 115.285156 18.339844 C 115.105469 17.550781 114.742188 16.820312 114.324219 16.214844 C 113.839844 15.605469 113.300781 15.0625 112.636719 14.695312 C 111.976562 14.332031 111.195312 14.089844 110.230469 14.027344 C 110.050781 14.027344 109.871094 14.011719 109.691406 13.996094 C 109.507812 13.984375 109.328125 13.96875 109.148438 13.96875 Z M 110.773438 23.136719 C 110.59375 23.441406 110.351562 23.746094 110.050781 23.925781 C 109.75 24.109375 109.328125 24.230469 108.96875 24.171875 L 107.28125 24.171875 L 107.28125 17.367188 L 108.304688 17.367188 C 108.605469 17.367188 108.96875 17.367188 109.328125 17.429688 C 109.691406 17.488281 110.050781 17.613281 110.292969 17.855469 C 110.53125 18.097656 110.773438 18.402344 110.894531 18.703125 C 111.011719 19.007812 111.132812 19.371094 111.195312 19.738281 C 111.253906 20.160156 111.253906 20.464844 111.253906 20.828125 C 111.253906 21.207031 111.207031 21.535156 111.152344 21.902344 L 111.132812 22.042969 C 111.074219 22.46875 110.953125 22.835938 110.773438 23.136719 Z M 110.773438 23.136719 "/>
<path style=" stroke:none;fill-rule:nonzero;fill:rgb(100%,0%,26.27451%);fill-opacity:1;" d="M 116.367188 13.96875 L 121.183594 13.96875 L 123.527344 18.644531 L 125.875 13.96875 L 130.628906 13.96875 L 125.753906 22.589844 L 125.753906 27.691406 L 121.363281 27.691406 L 121.363281 22.589844 Z M 116.367188 13.96875 "/>
<path style=" stroke:none;fill-rule:evenodd;fill:rgb(100%,0%,26.27451%);fill-opacity:1;" d="M 28.761719 14.027344 L 22.925781 14.027344 L 22.925781 27.691406 L 28.703125 27.691406 C 30.507812 27.691406 31.769531 27.207031 32.613281 26.113281 C 33.152344 25.445312 33.453125 24.65625 33.453125 23.746094 C 33.453125 22.652344 33.152344 21.863281 32.550781 21.253906 C 32.191406 20.890625 31.710938 20.585938 30.988281 20.34375 C 31.46875 20.101562 31.828125 19.859375 32.070312 19.554688 C 32.550781 19.007812 32.792969 18.28125 32.792969 17.429688 C 32.792969 16.699219 32.613281 16.03125 32.191406 15.484375 C 31.46875 14.515625 30.386719 14.027344 28.761719 14.027344 Z M 29.90625 19.492188 C 29.484375 19.675781 28.882812 19.796875 28.097656 19.796875 L 28.097656 19.859375 L 24.730469 19.859375 L 24.730469 15.605469 L 28.039062 15.605469 C 28.820312 15.605469 29.421875 15.667969 29.84375 15.851562 C 30.566406 16.152344 30.925781 16.761719 30.925781 17.671875 C 30.925781 18.523438 30.566406 19.128906 29.90625 19.492188 Z M 31.109375 25.140625 C 30.625 25.808594 29.84375 26.113281 28.703125 26.113281 L 24.730469 26.113281 L 24.730469 21.316406 L 28.402344 21.316406 C 29.183594 21.316406 29.785156 21.4375 30.265625 21.621094 C 31.167969 21.984375 31.589844 22.652344 31.589844 23.625 C 31.589844 24.230469 31.410156 24.714844 31.109375 25.140625 Z M 31.109375 25.140625 "/>
</g>
</svg>
